<svg width="1024" height="160" viewBox="0 0 1024 160" fill="none" xmlns="http://www.w3.org/2000/svg">
<g clip-path="url(#clip0_8_200)">
<mask id="mask0_8_200" style="mask-type:luminance" maskUnits="userSpaceOnUse" x="0" y="0" width="160" height="160">
<path d="M160 0H0V160H160V0Z" fill="white"/>
</mask>
<g mask="url(#mask0_8_200)">
<path d="M75.065 25.5306L0 100.596L22.1351 122.731L97.2 47.6658L75.065 25.5306Z" fill="black"/>
<path d="M137.134 20.7489L44.0508 113.832L66.1859 135.967L159.269 42.884L137.134 20.7489Z" fill="black"/>
<path d="M92.7328 26.4683L9.29688 109.904L11.8188 112.426L95.2544 28.9902L92.7328 26.4683Z" fill="black"/>
<path d="M157.478 20.0001L38.4317 139.047L40.9535 141.569L160 22.522L157.478 20.0001Z" fill="black"/>
</g>
<path d="M320.821 136L284.056 94.9336H310.174L343.28 131.645V136H320.821ZM224 136V24.1555H321.32C325.424 24.1555 329.139 25.1407 332.466 27.1111C335.904 28.9778 338.622 31.5185 340.618 34.7334C342.725 37.8445 343.778 41.3185 343.778 45.1555V75.9555C343.778 79.6889 342.725 83.1632 340.618 86.3776C338.622 89.5928 335.904 92.1336 332.466 94C329.139 95.8664 325.424 96.8 321.32 96.8L243.963 96.9552V136H224ZM246.958 77.9778H320.654C321.431 77.9778 322.097 77.7185 322.651 77.2C323.317 76.6815 323.65 76.0074 323.65 75.1778V45.6222C323.65 44.8963 323.317 44.2741 322.651 43.7555C322.097 43.1334 321.431 42.8222 320.654 42.8222H246.958C246.182 42.8222 245.46 43.1334 244.795 43.7555C244.24 44.2741 243.963 44.8963 243.963 45.6222V75.1778C243.963 76.0074 244.24 76.6815 244.795 77.2C245.46 77.7185 246.182 77.9778 246.958 77.9778Z" fill="black"/>
<path d="M361.612 136V45C361.612 41.163 362.61 37.637 364.606 34.4222C366.602 31.2074 369.32 28.6666 372.758 26.8C376.196 24.9334 379.966 24 384.07 24H458.932C463.035 24 466.751 24.9334 470.078 26.8C473.516 28.6666 476.234 31.2074 478.23 34.4222C480.337 37.637 481.39 41.163 481.39 45V136H461.261V97.5776H381.574V136H361.612ZM381.574 78.9111H461.261V45.6222C461.261 44.7926 460.928 44.1185 460.262 43.6C459.708 43.0814 459.043 42.8222 458.266 42.8222H384.57C383.793 42.8222 383.072 43.0814 382.406 43.6C381.852 44.1185 381.574 44.7926 381.574 45.6222V78.9111Z" fill="black"/>
<path d="M500.345 136V24H523.136L599.994 109.555V24H620.124V136H597.333L520.308 50.2889V136H500.345Z" fill="black"/>
<path d="M661.22 136C657.116 136 653.346 135.066 649.907 133.2C646.469 131.334 643.752 128.793 641.756 125.578C639.759 122.363 638.761 118.837 638.761 115V45C638.761 41.163 639.759 37.637 641.756 34.4222C643.752 31.2074 646.469 28.6666 649.907 26.8C653.346 24.9334 657.116 24 661.22 24H736.082C740.185 24 743.9 24.9334 747.227 26.8C750.666 28.6666 753.382 31.2074 755.379 34.4222C757.486 37.637 758.54 41.163 758.54 45V52.6222H738.41V45.6222C738.41 44.7926 738.078 44.1185 737.412 43.6C736.858 43.0814 736.192 42.8222 735.416 42.8222H661.718C660.942 42.8222 660.222 43.0814 659.556 43.6C659.002 44.1185 658.724 44.7926 658.724 45.6222V114.378C658.724 115.207 659.002 115.882 659.556 116.4C660.222 116.918 660.942 117.178 661.718 117.178H735.416C736.192 117.178 736.858 116.918 737.412 116.4C738.078 115.882 738.41 115.207 738.41 114.378V92.4448H710.794V73.6222H758.54V115C758.54 118.837 757.486 122.363 755.379 125.578C753.382 128.793 750.666 131.334 747.227 133.2C743.9 135.066 740.185 136 736.082 136H661.22Z" fill="black"/>
<path d="M777.185 136V24H887.152V42.8222H797.314V70.6666H869.68V89.3336H797.314V117.178H887.152V136H777.185Z" fill="black"/>
<path d="M1001.04 136L964.28 94.9336H990.392L1023.5 131.645V136H1001.04ZM904.224 136V24.1555H1001.54C1005.65 24.1555 1009.36 25.1407 1012.69 27.1111C1016.13 28.9778 1018.84 31.5185 1020.84 34.7334C1022.94 37.8445 1024 41.3185 1024 45.1555V75.9555C1024 79.6889 1022.94 83.1632 1020.84 86.3776C1018.84 89.5928 1016.13 92.1336 1012.69 94C1009.36 95.8664 1005.65 96.8 1001.54 96.8L924.184 96.9552V136H904.224ZM927.176 77.9778H1000.88C1001.66 77.9778 1002.32 77.7185 1002.87 77.2C1003.54 76.6815 1003.87 76.0074 1003.87 75.1778V45.6222C1003.87 44.8963 1003.54 44.2741 1002.87 43.7555C1002.32 43.1334 1001.66 42.8222 1000.88 42.8222H927.176C926.4 42.8222 925.68 43.1334 925.016 43.7555C924.464 44.2741 924.184 44.8963 924.184 45.6222V75.1778C924.184 76.0074 924.464 76.6815 925.016 77.2C925.68 77.7185 926.4 77.9778 927.176 77.9778Z" fill="black"/>
</g>
<defs>
<clipPath id="clip0_8_200">
<rect width="1024" height="160" fill="white"/>
</clipPath>
</defs>
</svg>
